<svg data-icon-name="create-note" data-style="line" icon_origin_id="4611" viewBox="0 0 24 24" xmlns="http://www.w3.org/2000/svg" id="create-note" class="icon line" width="48" height="48"><polygon style="fill: rgb(246, 146, 30); stroke-width: 1; stroke: rgb(0, 0, 0);" points="10.17 11 9 15 13 13.83 17.69 9.14 14.86 6.31 10.17 11" id="secondary-fill"></polygon><path style="fill: none; stroke: rgb(0, 0, 0); stroke-linecap: round; stroke-linejoin: round; stroke-width: 1;" d="M20,4a2.09,2.09,0,0,0-2.95.12L10.17,11,9,15l4-1.17L19.88,7A2.09,2.09,0,0,0,20,4Z" id="primary-stroke"></path><path style="fill: none; stroke: rgb(0, 0, 0); stroke-linecap: round; stroke-linejoin: round; stroke-width: 1;" d="M12,3H4A1,1,0,0,0,3,4V20a1,1,0,0,0,1,1H20a1,1,0,0,0,1-1V12" id="secondary-stroke"></path></svg>